<svg id="svg" version="1.1" width="400" height="184.17968749999997" xmlns="http://www.w3.org/2000/svg" xmlns:xlink="http://www.w3.org/1999/xlink" style="display: block;"><g id="svgg"><path id="path0" d="M205.435 59.813 C 205.435 60.066,205.484 60.089,205.656 59.917 C 206.198 59.375,206.285 59.699,206.275 62.213 C 206.267 64.099,206.323 64.750,206.500 64.810 C 206.685 64.872,206.724 64.327,206.684 62.246 L 206.633 59.604 206.034 59.546 C 205.563 59.501,205.435 59.558,205.435 59.813 M156.704 60.848 C 156.645 61.177,156.626 70.318,156.662 81.161 C 156.732 102.510,156.734 102.557,157.699 103.405 L 158.176 103.823 157.788 103.363 C 157.004 102.433,156.978 101.704,156.978 80.623 L 156.978 60.525 181.115 60.573 C 197.289 60.605,205.251 60.560,205.251 60.435 C 205.251 60.310,197.230 60.249,181.031 60.249 L 156.811 60.249 156.704 60.848 M209.830 65.454 C 209.923 65.547,210.195 65.592,210.435 65.555 C 210.804 65.497,210.778 65.471,210.266 65.386 C 209.900 65.325,209.728 65.352,209.830 65.454 M214.390 67.112 C 214.444 67.239,214.752 67.544,215.075 67.790 L 215.661 68.238 215.026 67.560 C 214.342 66.829,214.236 66.755,214.390 67.112 M215.964 68.816 C 216.131 69.019,216.308 69.351,216.358 69.553 C 216.444 69.908,216.448 69.907,216.469 69.536 C 216.480 69.323,216.304 68.992,216.076 68.799 C 215.664 68.451,215.663 68.451,215.964 68.816 M207.554 69.393 C 208.874 69.530,210.369 69.542,210.290 69.415 C 210.243 69.339,209.483 69.290,208.603 69.306 C 207.722 69.323,207.250 69.362,207.554 69.393 M206.954 79.810 C 206.929 85.451,206.960 90.198,207.021 90.358 C 207.163 90.729,209.223 90.766,209.909 90.409 C 210.314 90.200,210.165 90.179,208.734 90.248 L 207.097 90.326 207.047 79.940 L 206.998 69.553 206.954 79.810 M212.364 71.119 C 212.454 71.271,212.575 75.044,212.632 79.503 L 212.735 87.609 212.724 79.465 C 212.715 72.742,212.668 71.280,212.456 71.082 C 212.242 70.883,212.226 70.890,212.364 71.119 M216.760 80.055 C 216.760 84.919,216.783 86.883,216.812 84.418 C 216.841 81.954,216.841 77.974,216.812 75.575 C 216.783 73.175,216.760 75.191,216.760 80.055 M160.850 87.184 C 160.852 95.497,160.916 99.857,161.032 99.678 C 161.280 99.294,161.280 74.681,161.032 74.528 C 160.910 74.452,160.848 78.717,160.850 87.184 M206.654 94.624 L 206.122 95.097 206.221 97.928 C 206.360 101.910,206.614 101.909,206.725 97.927 L 206.817 94.611 208.844 94.509 C 210.792 94.411,210.813 94.406,209.397 94.368 C 208.586 94.347,207.757 94.289,207.554 94.240 C 207.325 94.184,206.985 94.329,206.654 94.624 M161.216 100.046 C 161.216 100.485,161.499 100.535,161.657 100.123 C 161.815 99.711,161.802 99.678,161.492 99.678 C 161.339 99.678,161.216 99.841,161.216 100.046 M206.318 101.437 C 206.163 101.693,205.820 102.994,205.908 102.994 C 206.044 102.994,206.551 101.642,206.487 101.450 C 206.448 101.335,206.383 101.330,206.318 101.437 M205.260 103.779 L 204.834 104.376 205.355 103.875 C 205.642 103.599,205.833 103.331,205.781 103.278 C 205.728 103.226,205.494 103.451,205.260 103.779 M159.757 105.445 C 159.800 105.476,160.083 105.646,160.387 105.824 L 160.940 106.148 160.505 105.769 C 160.265 105.560,159.982 105.389,159.875 105.389 C 159.768 105.389,159.715 105.414,159.757 105.445 M150.714 107.681 C 150.714 108.042,150.746 108.337,150.785 108.337 C 150.936 108.337,151.013 107.210,150.867 107.121 C 150.783 107.068,150.714 107.321,150.714 107.681 M214.977 107.784 C 215.021 108.088,215.090 108.337,215.129 108.337 C 215.168 108.337,215.200 108.088,215.200 107.784 C 215.200 107.480,215.132 107.232,215.048 107.232 C 214.964 107.232,214.932 107.480,214.977 107.784 " stroke="none" fill="#000000" fill-rule="evenodd"></path><path id="path1" d="M205.699 59.901 C 205.629 60.014,205.676 60.170,205.804 60.249 C 205.931 60.327,205.978 60.484,205.909 60.597 C 205.715 60.910,205.436 60.841,205.432 60.479 C 205.430 60.247,205.388 60.221,205.282 60.389 C 205.164 60.574,200.273 60.612,181.056 60.573 C 167.814 60.547,156.978 60.578,156.978 60.644 C 156.978 60.709,157.108 60.812,157.266 60.873 C 157.425 60.933,157.502 61.068,157.438 61.172 C 157.374 61.275,157.244 61.313,157.150 61.254 C 157.056 61.196,156.978 61.227,156.978 61.324 C 156.978 61.420,157.082 61.539,157.209 61.587 C 157.462 61.685,157.543 100.832,157.291 101.085 C 157.220 101.155,157.164 101.344,157.165 101.505 C 157.168 101.756,157.192 101.759,157.340 101.525 C 157.434 101.376,157.536 101.293,157.567 101.341 C 157.598 101.389,157.830 101.842,158.084 102.349 C 158.602 103.386,159.665 104.652,160.017 104.652 C 160.145 104.652,160.347 104.770,160.467 104.914 C 161.326 105.949,161.777 105.972,181.593 105.976 C 199.905 105.980,200.746 105.954,201.491 105.367 C 201.602 105.280,201.742 105.258,201.804 105.320 C 202.067 105.583,204.194 104.013,204.819 103.096 C 205.282 102.415,205.801 100.776,205.810 99.967 C 205.815 99.479,205.847 99.442,206.043 99.700 C 206.226 99.941,206.257 99.514,206.202 97.512 C 206.148 95.562,206.187 94.991,206.383 94.867 C 206.578 94.744,206.562 94.708,206.310 94.706 C 206.133 94.704,205.988 94.576,205.988 94.421 C 205.988 94.068,206.777 93.738,206.909 94.035 C 207.061 94.376,210.071 94.442,209.941 94.102 C 209.849 93.864,210.191 93.708,211.053 93.595 C 212.128 93.453,214.071 92.189,214.917 91.082 C 216.182 89.425,216.190 89.349,216.181 79.641 C 216.176 74.853,216.244 70.935,216.331 70.935 C 216.419 70.935,216.339 70.784,216.153 70.598 C 215.968 70.413,215.635 69.895,215.413 69.447 C 214.759 68.125,213.662 67.143,212.112 66.490 C 211.782 66.351,211.546 66.147,211.588 66.037 C 211.630 65.927,211.548 65.838,211.406 65.838 C 211.263 65.838,211.147 65.902,211.147 65.981 C 211.147 66.123,207.934 66.028,206.781 65.853 C 206.198 65.764,205.759 65.131,206.106 64.878 C 206.374 64.683,206.325 59.696,206.055 59.696 C 205.929 59.696,205.769 59.788,205.699 59.901 M202.797 63.059 C 203.219 63.481,203.194 100.134,202.772 100.952 C 202.372 101.725,201.569 102.626,201.280 102.626 C 201.157 102.626,200.818 102.750,200.528 102.902 C 199.708 103.330,164.020 103.310,162.733 102.881 C 161.766 102.558,160.963 101.896,160.529 101.065 C 160.205 100.444,160.089 63.320,160.410 63.016 C 160.702 62.740,161.115 62.736,181.916 62.774 C 198.874 62.805,202.594 62.856,202.797 63.059 M209.556 65.501 C 209.846 65.652,210.178 65.776,210.293 65.775 C 210.408 65.774,210.265 65.650,209.974 65.499 C 209.684 65.347,209.352 65.224,209.237 65.225 C 209.122 65.225,209.266 65.350,209.556 65.501 M157.021 67.803 C 157.021 68.158,157.059 68.303,157.105 68.125 C 157.152 67.948,157.152 67.658,157.105 67.480 C 157.059 67.303,157.021 67.448,157.021 67.803 M157.025 69.185 C 157.027 69.590,157.065 69.734,157.109 69.505 C 157.153 69.276,157.151 68.944,157.105 68.768 C 157.059 68.592,157.023 68.779,157.025 69.185 M211.095 69.090 C 213.477 70.340,213.446 70.204,213.464 79.503 C 213.481 88.212,213.456 88.450,212.412 89.547 C 211.118 90.908,207.656 91.683,206.640 90.839 C 206.292 90.551,206.203 69.723,206.547 69.080 C 206.832 68.549,210.078 68.556,211.095 69.090 M206.725 79.963 C 206.725 85.739,206.787 90.465,206.863 90.465 C 206.939 90.465,207.001 85.739,207.001 79.963 C 207.001 74.187,206.939 69.461,206.863 69.461 C 206.787 69.461,206.725 74.187,206.725 79.963 M162.145 73.509 C 162.047 73.570,161.949 79.056,161.910 86.692 C 161.874 93.885,161.772 99.928,161.683 100.122 C 161.570 100.369,161.584 100.437,161.729 100.347 C 161.846 100.275,162.066 100.416,162.232 100.669 C 162.939 101.748,162.116 101.704,181.695 101.704 C 201.591 101.703,200.287 101.781,201.102 100.539 C 201.393 100.093,201.564 73.819,201.277 73.532 C 201.141 73.397,162.364 73.374,162.145 73.509 M160.746 80.424 C 160.746 83.768,160.771 85.162,160.801 83.522 C 160.832 81.881,160.832 79.145,160.801 77.441 C 160.771 75.738,160.746 77.080,160.746 80.424 M161.285 78.213 C 161.285 79.327,161.316 79.760,161.352 79.173 C 161.389 78.587,161.389 77.675,161.352 77.147 C 161.315 76.618,161.285 77.098,161.285 78.213 M157.039 78.581 C 157.040 79.291,157.073 79.558,157.113 79.176 C 157.153 78.794,157.152 78.213,157.111 77.886 C 157.071 77.559,157.038 77.872,157.039 78.581 M161.283 82.266 C 161.284 83.280,161.315 83.671,161.352 83.135 C 161.389 82.600,161.389 81.771,161.351 81.293 C 161.313 80.815,161.283 81.253,161.283 82.266 M161.275 86.412 C 161.275 87.070,161.308 87.340,161.349 87.011 C 161.390 86.681,161.390 86.142,161.349 85.813 C 161.308 85.484,161.275 85.753,161.275 86.412 M157.029 86.965 C 157.029 87.421,157.064 87.607,157.108 87.379 C 157.152 87.151,157.152 86.778,157.108 86.550 C 157.064 86.322,157.029 86.509,157.029 86.965 M160.745 92.400 C 160.745 95.541,160.770 96.852,160.801 95.313 C 160.832 93.774,160.832 91.204,160.801 89.602 C 160.770 87.999,160.745 89.258,160.745 92.400 M161.271 88.623 C 161.271 89.180,161.306 89.408,161.348 89.129 C 161.390 88.851,161.390 88.395,161.348 88.116 C 161.306 87.837,161.271 88.065,161.271 88.623 M161.295 94.979 C 161.296 97.411,161.322 98.381,161.354 97.134 C 161.386 95.886,161.386 93.897,161.354 92.712 C 161.321 91.527,161.295 92.547,161.295 94.979 M160.701 98.941 C 160.686 99.422,160.788 99.919,160.946 100.127 C 161.094 100.324,161.216 100.403,161.216 100.302 C 161.216 100.202,161.138 100.041,161.043 99.945 C 160.948 99.848,160.839 99.397,160.799 98.941 L 160.728 98.111 160.701 98.941 M151.019 107.369 C 150.972 107.446,165.304 107.487,182.869 107.461 C 208.363 107.423,214.820 107.461,214.882 107.645 C 214.927 107.780,214.951 107.761,214.939 107.600 C 214.917 107.299,151.205 107.069,151.019 107.369 M214.060 107.696 C 214.004 107.752,200.191 107.796,183.364 107.793 C 159.169 107.789,152.751 107.835,152.678 108.016 C 152.605 108.197,152.582 108.197,152.571 108.015 C 152.550 107.682,151.635 107.721,151.635 108.055 C 151.635 108.518,152.244 109.627,152.498 109.627 C 152.632 109.627,152.741 109.693,152.741 109.774 C 152.741 110.344,153.981 110.368,182.901 110.367 C 212.703 110.365,212.591 110.368,213.424 109.647 C 213.921 109.216,214.525 107.956,214.328 107.759 C 214.237 107.668,214.117 107.640,214.060 107.696 M168.370 111.055 C 176.409 111.081,189.509 111.081,197.481 111.055 C 205.453 111.028,198.876 111.006,182.865 111.006 C 166.854 111.006,160.331 111.028,168.370 111.055 " stroke="none" fill="#542a02" fill-rule="evenodd"></path><path id="path2" d="M205.484 60.465 C 205.469 60.663,205.550 60.794,205.665 60.756 C 205.979 60.651,206.036 60.307,205.757 60.200 C 205.607 60.142,205.500 60.246,205.484 60.465 M157.006 60.977 C 157.085 61.214,157.338 61.257,157.361 61.036 C 157.368 60.963,157.275 60.870,157.153 60.829 C 157.032 60.789,156.965 60.855,157.006 60.977 M157.069 81.345 C 157.069 93.784,157.134 101.130,157.244 101.094 C 157.484 101.014,157.485 61.677,157.245 61.597 C 157.134 61.560,157.069 68.816,157.069 81.345 M160.926 62.800 C 160.731 62.835,160.499 62.932,160.410 63.016 C 160.089 63.320,160.205 100.444,160.529 101.065 C 161.220 102.389,162.795 103.200,164.585 103.153 C 165.474 103.130,165.444 103.118,164.184 102.986 C 162.583 102.818,161.554 102.213,160.907 101.061 C 160.501 100.337,160.501 99.927,160.906 100.171 C 161.065 100.266,161.063 100.226,160.900 100.024 C 160.641 99.704,160.553 74.436,160.811 74.436 C 160.892 74.436,161.074 74.539,161.216 74.666 C 161.436 74.862,161.438 74.848,161.231 74.574 C 161.096 74.397,160.872 74.251,160.733 74.251 C 160.323 74.251,160.360 63.282,160.770 63.124 C 161.449 62.864,202.434 63.002,202.652 63.266 C 202.808 63.453,202.850 68.364,202.813 82.013 L 202.764 100.507 202.328 101.202 C 202.089 101.584,201.509 102.123,201.039 102.400 L 200.184 102.902 182.865 102.996 L 165.546 103.091 182.773 103.133 C 197.753 103.170,200.069 103.140,200.528 102.901 C 200.818 102.749,201.157 102.626,201.280 102.626 C 201.569 102.626,202.372 101.725,202.772 100.952 C 203.194 100.134,203.219 63.481,202.797 63.059 C 202.569 62.831,162.139 62.581,160.926 62.800 M205.988 65.024 C 205.988 65.797,206.290 65.890,209.258 66.034 C 210.706 66.104,211.147 66.071,211.147 65.892 C 211.147 65.642,210.654 65.595,207.980 65.594 C 206.418 65.593,205.816 65.378,206.379 65.021 C 206.580 64.894,206.565 64.860,206.310 64.858 C 206.133 64.856,205.988 64.931,205.988 65.024 M211.600 65.973 C 211.455 66.207,211.422 66.179,212.345 66.602 C 213.901 67.317,214.578 67.964,215.498 69.613 C 216.244 70.949,216.591 71.092,216.417 69.992 C 216.346 69.548,216.152 69.060,215.985 68.908 C 215.715 68.663,215.703 68.663,215.875 68.908 C 216.195 69.365,216.296 69.999,216.034 69.898 C 215.706 69.772,215.374 68.967,215.507 68.620 C 215.640 68.272,214.425 67.193,213.853 67.150 C 213.648 67.135,213.339 66.948,213.166 66.734 C 212.993 66.520,212.806 66.389,212.752 66.444 C 212.590 66.606,211.864 66.142,211.982 65.951 C 212.041 65.855,212.007 65.776,211.906 65.776 C 211.804 65.776,211.667 65.865,211.600 65.973 M215.350 68.291 C 215.382 68.306,215.341 68.356,215.259 68.402 C 215.176 68.447,214.863 68.186,214.564 67.821 L 214.020 67.158 214.656 67.711 C 215.005 68.015,215.317 68.276,215.350 68.291 M206.547 69.080 C 206.203 69.723,206.292 90.551,206.640 90.839 C 207.656 91.683,211.118 90.908,212.412 89.547 C 213.456 88.450,213.481 88.212,213.464 79.503 C 213.446 70.204,213.477 70.340,211.095 69.090 C 210.078 68.556,206.832 68.549,206.547 69.080 M209.976 69.185 C 210.295 69.504,210.594 69.546,210.594 69.272 C 210.594 68.745,212.523 70.330,212.617 70.935 C 212.724 71.621,212.887 85.006,212.805 86.349 C 212.754 87.175,212.769 87.817,212.838 87.774 C 212.907 87.731,213.016 87.780,213.080 87.884 C 213.145 87.988,213.077 88.119,212.929 88.175 C 212.782 88.232,212.699 88.423,212.746 88.600 C 212.848 88.991,211.316 90.472,210.829 90.452 C 210.534 90.441,210.532 90.427,210.809 90.314 C 210.978 90.245,211.309 89.940,211.544 89.636 L 211.972 89.083 211.361 89.590 C 211.025 89.869,210.679 90.097,210.592 90.097 C 210.506 90.097,210.382 90.263,210.318 90.465 C 210.254 90.668,210.119 90.834,210.018 90.834 C 209.918 90.834,209.874 90.772,209.921 90.696 C 209.968 90.620,209.317 90.557,208.475 90.557 C 207.633 90.557,206.983 90.620,207.030 90.696 C 207.077 90.772,207.027 90.834,206.920 90.834 C 206.614 90.834,206.649 69.466,206.955 69.447 C 207.138 69.435,207.138 69.413,206.954 69.339 C 206.394 69.113,207.041 68.908,208.315 68.908 C 209.300 68.908,209.779 68.988,209.976 69.185 M216.181 79.641 C 216.190 89.354,216.183 89.424,214.912 91.089 C 214.230 91.981,212.665 93.121,211.839 93.327 C 211.536 93.402,211.381 93.537,211.452 93.663 C 211.535 93.812,211.501 93.811,211.336 93.658 C 211.035 93.380,210.587 93.548,210.718 93.889 C 210.773 94.033,210.726 94.150,210.614 94.150 C 210.502 94.150,210.410 94.067,210.410 93.966 C 210.410 93.865,210.279 93.782,210.118 93.782 C 209.958 93.782,209.861 93.885,209.902 94.012 C 210.001 94.313,210.963 94.430,210.963 94.141 C 210.963 94.014,211.116 93.963,211.331 94.019 C 211.577 94.083,211.700 94.025,211.700 93.844 C 211.700 93.656,211.813 93.609,212.069 93.690 C 212.311 93.766,212.475 93.711,212.545 93.530 C 212.603 93.377,212.769 93.297,212.913 93.352 C 213.071 93.413,213.174 93.336,213.174 93.157 C 213.174 92.885,213.394 92.774,213.792 92.845 C 214.105 92.901,214.648 92.646,214.648 92.443 C 214.648 92.294,214.584 92.298,214.427 92.455 C 213.989 92.892,213.908 92.665,214.308 92.123 C 214.765 91.505,215.016 91.418,215.016 91.878 C 215.016 92.047,215.064 92.136,215.124 92.077 C 215.183 92.018,215.219 91.914,215.203 91.846 C 215.188 91.777,215.326 91.600,215.511 91.452 C 215.824 91.200,215.818 91.191,215.417 91.301 C 214.996 91.418,214.999 91.404,215.557 90.436 C 215.870 89.895,216.217 89.476,216.330 89.505 C 216.459 89.539,216.504 89.351,216.451 88.990 C 216.405 88.678,216.436 88.380,216.521 88.327 C 216.786 88.163,216.713 71.784,216.446 71.517 C 216.263 71.335,216.273 71.253,216.492 71.114 C 216.730 70.964,216.727 70.940,216.469 70.938 C 216.200 70.935,216.173 71.752,216.181 79.641 M161.813 83.234 L 161.858 93.137 161.907 83.382 C 161.945 75.860,162.009 73.593,162.185 73.481 C 162.347 73.378,162.319 73.335,162.091 73.333 C 161.788 73.330,161.771 73.907,161.813 83.234 M163.197 73.465 C 163.627 73.504,164.332 73.504,164.763 73.465 C 165.193 73.426,164.841 73.395,163.980 73.395 C 163.118 73.395,162.766 73.426,163.197 73.465 M185.310 73.464 C 185.641 73.505,186.138 73.504,186.415 73.462 C 186.692 73.420,186.421 73.386,185.813 73.387 C 185.205 73.388,184.978 73.423,185.310 73.464 M193.782 73.464 C 194.111 73.504,194.650 73.504,194.979 73.464 C 195.309 73.423,195.039 73.389,194.380 73.389 C 193.722 73.389,193.452 73.423,193.782 73.464 M196.361 73.460 C 196.589 73.504,196.962 73.504,197.190 73.460 C 197.418 73.416,197.232 73.380,196.776 73.380 C 196.320 73.380,196.133 73.416,196.361 73.460 M198.199 73.463 C 198.527 73.504,199.107 73.505,199.489 73.465 C 199.871 73.425,199.604 73.392,198.895 73.391 C 198.185 73.390,197.872 73.423,198.199 73.463 M201.058 73.446 C 201.357 73.534,201.382 74.201,201.429 83.155 L 201.479 92.768 201.476 83.098 C 201.474 73.564,201.469 73.427,201.105 73.389 C 200.822 73.360,200.811 73.373,201.058 73.446 M206.403 93.982 C 206.175 94.068,205.988 94.265,205.988 94.421 C 205.988 94.783,206.702 94.793,206.840 94.433 C 207.012 93.985,206.847 93.815,206.403 93.982 M201.457 97.098 C 201.457 98.770,201.485 99.454,201.519 98.618 C 201.553 97.782,201.553 96.414,201.519 95.578 C 201.485 94.742,201.457 95.426,201.457 97.098 M161.443 95.071 C 161.443 95.426,161.481 95.571,161.527 95.394 C 161.574 95.216,161.574 94.926,161.527 94.749 C 161.481 94.572,161.443 94.717,161.443 95.071 M161.812 95.440 C 161.812 95.795,161.849 95.940,161.896 95.762 C 161.942 95.585,161.942 95.295,161.896 95.117 C 161.849 94.940,161.812 95.085,161.812 95.440 M161.466 97.374 C 161.465 98.287,161.496 98.683,161.535 98.255 C 161.574 97.828,161.574 97.081,161.536 96.597 C 161.498 96.113,161.466 96.462,161.466 97.374 M161.801 98.618 C 161.783 99.099,161.681 99.493,161.574 99.493 C 161.466 99.493,161.438 99.398,161.510 99.281 C 161.595 99.143,161.560 99.118,161.413 99.209 C 161.248 99.311,161.240 99.407,161.384 99.551 C 161.732 99.898,161.982 99.418,161.905 98.551 L 161.833 97.743 161.801 98.618 M205.810 99.967 C 205.801 100.776,205.282 102.415,204.819 103.096 C 204.194 104.013,202.067 105.583,201.804 105.320 C 201.742 105.258,201.602 105.280,201.491 105.367 C 200.746 105.954,199.905 105.980,181.593 105.976 C 161.777 105.972,161.326 105.949,160.467 104.914 C 160.347 104.770,160.145 104.652,160.017 104.652 C 159.648 104.652,158.553 103.330,158.068 102.297 C 157.591 101.282,157.451 101.166,157.272 101.634 C 157.204 101.810,157.298 102.056,157.499 102.233 C 158.130 102.786,158.380 103.431,157.867 103.182 C 157.452 102.980,157.450 102.983,157.807 103.268 C 158.010 103.430,158.186 103.642,158.199 103.739 C 158.212 103.836,158.232 103.998,158.245 104.099 C 158.258 104.201,158.361 104.284,158.475 104.284 C 158.624 104.284,158.621 104.211,158.466 104.024 C 158.009 103.473,158.613 103.585,159.152 104.150 C 159.463 104.477,159.910 104.890,160.145 105.067 L 160.571 105.390 160.018 105.297 L 159.466 105.203 160.018 105.416 C 160.322 105.533,160.632 105.720,160.707 105.831 C 160.800 105.972,160.843 105.963,160.845 105.804 C 160.849 105.439,161.367 105.536,161.585 105.942 C 161.693 106.145,161.924 106.305,162.098 106.298 C 162.360 106.287,162.352 106.258,162.045 106.126 C 161.826 106.032,161.783 105.963,161.939 105.955 C 162.083 105.948,162.366 106.087,162.569 106.264 C 162.772 106.442,162.877 106.483,162.803 106.357 C 162.707 106.193,162.834 106.126,163.243 106.126 C 163.579 106.126,163.770 106.203,163.703 106.310 C 163.628 106.433,169.702 106.490,181.795 106.482 C 192.123 106.474,199.841 106.400,199.632 106.310 C 199.314 106.174,199.340 106.150,199.816 106.137 C 200.120 106.128,200.576 106.079,200.829 106.026 C 201.275 105.935,201.276 105.938,200.875 106.115 C 200.647 106.216,200.461 106.340,200.461 106.391 C 200.461 106.517,201.017 106.302,201.512 105.986 C 201.735 105.843,202.005 105.779,202.111 105.845 C 202.217 105.911,202.304 105.815,202.306 105.630 C 202.308 105.418,202.358 105.374,202.444 105.509 C 202.545 105.667,202.721 105.658,203.132 105.471 L 203.685 105.220 203.132 105.329 C 202.588 105.436,202.590 105.429,203.323 104.888 C 204.115 104.303,205.067 103.261,205.067 102.980 C 205.067 102.886,205.155 102.810,205.263 102.810 C 205.380 102.810,205.410 102.969,205.336 103.201 C 205.252 103.465,205.278 103.552,205.416 103.467 C 205.528 103.397,205.620 103.221,205.620 103.075 C 205.620 102.929,205.695 102.810,205.787 102.810 C 205.878 102.810,205.910 102.644,205.857 102.441 C 205.801 102.226,205.852 102.073,205.979 102.073 C 206.113 102.073,206.152 101.931,206.080 101.704 C 206.013 101.493,206.047 101.336,206.160 101.336 C 206.452 101.336,206.398 100.171,206.086 99.759 C 205.829 99.419,205.815 99.430,205.810 99.967 M200.912 100.798 C 200.844 100.908,200.528 101.156,200.210 101.350 C 199.892 101.544,199.734 101.703,199.859 101.704 C 200.095 101.704,201.388 100.614,201.162 100.604 C 201.092 100.601,200.980 100.688,200.912 100.798 M174.896 101.831 C 175.074 101.878,175.364 101.878,175.541 101.831 C 175.719 101.785,175.573 101.747,175.219 101.747 C 174.864 101.747,174.719 101.785,174.896 101.831 M151.021 107.539 C 150.953 107.607,151.035 107.814,151.203 108.000 C 151.371 108.185,151.419 108.337,151.311 108.337 C 151.202 108.337,151.071 108.234,151.020 108.107 C 150.947 107.925,150.924 107.925,150.913 108.110 C 150.905 108.239,151.188 108.625,151.543 108.970 C 152.235 109.642,152.330 109.621,151.912 108.890 C 151.504 108.177,151.564 107.784,152.080 107.784 C 152.325 107.784,152.568 107.888,152.619 108.015 C 152.692 108.196,152.715 108.197,152.726 108.016 C 152.738 107.835,159.092 107.789,183.305 107.793 C 200.116 107.796,213.941 107.777,214.028 107.752 C 214.116 107.727,214.365 107.805,214.583 107.926 C 214.937 108.122,214.970 108.107,214.884 107.781 C 214.788 107.412,151.388 107.171,151.021 107.539 M214.097 108.700 C 213.816 109.379,213.236 109.893,212.453 110.155 C 211.993 110.309,204.092 110.366,182.901 110.367 C 153.981 110.368,152.741 110.344,152.741 109.774 C 152.741 109.693,152.658 109.627,152.556 109.627 C 152.455 109.627,152.382 109.689,152.394 109.765 C 152.457 110.167,152.331 110.202,151.958 109.886 L 151.543 109.535 151.887 109.942 C 152.077 110.166,152.299 110.332,152.381 110.311 C 152.463 110.289,152.665 110.438,152.830 110.640 C 153.121 110.998,153.124 110.997,152.919 110.577 C 152.723 110.174,152.738 110.154,153.139 110.286 C 153.376 110.364,153.860 110.487,154.215 110.559 C 154.781 110.674,154.803 110.698,154.399 110.756 C 154.146 110.792,167.080 110.864,183.141 110.915 C 213.527 111.013,213.525 111.013,213.246 110.288 C 213.195 110.154,213.407 109.832,213.716 109.572 C 214.026 109.311,214.280 108.948,214.282 108.764 C 214.284 108.510,214.322 108.489,214.441 108.675 C 214.567 108.875,214.616 108.869,214.702 108.644 C 214.906 108.113,214.318 108.167,214.097 108.700 M212.669 110.646 C 212.396 110.837,212.102 110.884,211.753 110.792 L 211.239 110.656 211.792 110.532 C 212.872 110.289,213.131 110.322,212.669 110.646 M173.425 110.678 C 173.198 110.722,172.784 110.723,172.504 110.680 C 172.224 110.638,172.409 110.602,172.916 110.601 C 173.422 110.599,173.652 110.634,173.425 110.678 " stroke="none" fill="#42423e" fill-rule="evenodd"></path><path id="path3" d="M160.709 63.134 C 160.531 63.206,160.488 64.480,160.521 68.786 L 160.563 74.344 160.659 68.816 L 160.755 63.289 181.667 63.289 L 202.579 63.289 202.626 81.511 C 202.656 92.867,202.606 99.978,202.495 100.381 C 202.354 100.889,202.364 100.980,202.540 100.804 C 202.854 100.490,202.965 63.642,202.652 63.266 C 202.444 63.015,161.325 62.886,160.709 63.134 M206.217 65.269 C 206.264 65.412,206.673 65.508,207.292 65.522 C 207.867 65.535,208.017 65.510,207.646 65.463 C 207.292 65.418,206.923 65.304,206.826 65.210 C 206.569 64.959,206.129 65.002,206.217 65.269 M211.982 65.951 C 211.863 66.144,212.591 66.605,212.755 66.440 C 212.877 66.318,212.457 65.776,212.241 65.776 C 212.158 65.776,212.041 65.855,211.982 65.951 M212.989 66.511 C 212.989 66.611,213.311 66.896,213.703 67.144 C 214.096 67.391,214.583 67.804,214.784 68.061 C 214.986 68.317,215.188 68.491,215.233 68.446 C 215.278 68.401,214.888 67.906,214.368 67.347 C 213.477 66.390,212.989 66.094,212.989 66.511 M215.385 68.808 C 215.385 69.043,215.833 69.830,215.967 69.830 C 216.200 69.830,216.153 69.197,215.901 68.945 C 215.681 68.726,215.385 68.647,215.385 68.808 M206.817 69.093 C 206.745 69.210,207.276 69.277,208.280 69.277 C 209.209 69.277,209.857 69.201,209.857 69.093 C 209.857 68.985,209.247 68.908,208.394 68.908 C 207.589 68.908,206.880 68.991,206.817 69.093 M210.594 69.252 C 210.594 69.345,210.724 69.471,210.882 69.532 C 211.041 69.593,211.119 69.726,211.056 69.828 C 210.993 69.930,211.070 70.024,211.228 70.037 C 211.887 70.090,212.307 70.329,212.160 70.567 C 212.042 70.757,212.413 71.020,212.574 70.859 C 212.636 70.798,212.443 70.492,212.147 70.180 C 211.556 69.558,210.594 68.984,210.594 69.252 M161.708 73.268 C 161.640 73.336,161.585 73.635,161.585 73.933 C 161.585 74.360,161.520 74.451,161.282 74.359 C 161.053 74.271,161.027 74.300,161.173 74.478 C 161.302 74.634,161.387 78.826,161.429 87.103 C 161.464 93.917,161.555 99.493,161.631 99.493 C 161.707 99.493,161.769 93.606,161.769 86.411 L 161.769 73.329 181.621 73.375 L 201.474 73.422 201.569 86.688 L 201.663 99.954 201.661 86.596 L 201.658 73.238 181.745 73.191 C 170.793 73.165,161.776 73.200,161.708 73.268 M212.707 87.895 C 212.532 88.178,212.772 88.361,213.009 88.125 C 213.141 87.992,213.144 87.889,213.018 87.811 C 212.915 87.748,212.775 87.785,212.707 87.895 M212.437 88.623 C 212.437 88.845,211.113 90.194,210.755 90.336 C 210.578 90.406,210.600 90.440,210.829 90.451 C 211.217 90.468,212.805 89.054,212.805 88.691 C 212.805 88.552,212.722 88.439,212.621 88.439 C 212.520 88.439,212.437 88.521,212.437 88.623 M215.614 90.315 C 215.308 90.854,215.083 91.323,215.115 91.357 C 215.271 91.528,215.793 91.018,216.121 90.374 C 216.692 89.255,216.246 89.203,215.614 90.315 M214.308 92.123 C 214.084 92.427,213.985 92.676,214.089 92.676 C 214.194 92.676,214.279 92.593,214.279 92.492 C 214.279 92.391,214.445 92.308,214.648 92.308 C 214.893 92.308,215.016 92.185,215.016 91.939 C 215.016 91.420,214.783 91.481,214.308 92.123 M160.608 100.163 C 160.200 100.571,162.243 102.810,163.023 102.810 C 163.176 102.810,162.935 102.617,162.489 102.381 C 161.610 101.918,160.703 100.802,161.037 100.596 C 161.169 100.514,161.149 100.404,160.977 100.262 C 160.837 100.145,160.671 100.100,160.608 100.163 M201.303 100.372 C 200.943 101.506,200.574 101.604,196.255 101.711 L 192.262 101.811 196.163 101.850 L 200.064 101.889 200.635 101.408 C 201.230 100.907,201.661 100.264,201.506 100.109 C 201.456 100.059,201.365 100.177,201.303 100.372 M162.000 100.893 C 162.625 101.615,163.306 101.891,164.385 101.860 L 165.362 101.832 164.256 101.708 C 162.908 101.557,162.611 101.432,162.236 100.860 C 162.076 100.615,161.864 100.415,161.766 100.415 C 161.667 100.415,161.773 100.630,162.000 100.893 M201.566 101.827 C 200.990 102.428,200.976 102.464,201.435 102.168 C 201.718 101.985,202.032 101.682,202.133 101.494 C 202.392 101.009,202.298 101.064,201.566 101.827 M167.073 101.841 C 167.710 101.877,168.705 101.877,169.284 101.840 C 169.863 101.804,169.341 101.774,168.125 101.775 C 166.909 101.775,166.436 101.805,167.073 101.841 M171.119 101.834 C 171.347 101.878,171.720 101.878,171.948 101.834 C 172.176 101.790,171.990 101.754,171.534 101.754 C 171.078 101.754,170.891 101.790,171.119 101.834 M172.962 101.838 C 173.291 101.878,173.830 101.878,174.159 101.838 C 174.489 101.797,174.219 101.763,173.561 101.763 C 172.902 101.763,172.632 101.797,172.962 101.838 M178.121 101.842 C 179.463 101.873,181.661 101.873,183.003 101.842 C 184.346 101.811,183.247 101.785,180.562 101.785 C 177.877 101.785,176.778 101.811,178.121 101.842 M186.138 101.836 C 186.418 101.879,186.833 101.878,187.059 101.834 C 187.286 101.790,187.057 101.756,186.550 101.757 C 186.043 101.758,185.858 101.794,186.138 101.836 M188.256 101.835 C 188.486 101.879,188.817 101.877,188.993 101.831 C 189.170 101.785,188.982 101.749,188.577 101.751 C 188.171 101.753,188.027 101.791,188.256 101.835 M190.557 101.836 C 190.836 101.878,191.292 101.878,191.571 101.836 C 191.849 101.794,191.621 101.759,191.064 101.759 C 190.507 101.759,190.279 101.794,190.557 101.836 M157.531 102.711 C 157.531 102.860,157.696 103.069,157.898 103.178 C 158.240 103.360,158.251 103.342,158.053 102.908 C 157.820 102.395,157.531 102.287,157.531 102.711 M205.241 102.841 C 204.646 103.708,204.028 104.367,203.323 104.888 C 202.600 105.422,202.595 105.434,203.132 105.309 C 203.825 105.148,205.010 104.023,205.359 103.196 C 205.671 102.457,205.617 102.294,205.241 102.841 M172.501 102.948 C 177.543 102.975,185.792 102.975,190.834 102.948 C 195.875 102.921,191.750 102.898,181.667 102.898 C 171.585 102.898,167.460 102.921,172.501 102.948 M158.391 103.681 C 158.161 104.053,160.119 105.626,160.428 105.317 C 160.474 105.272,160.278 105.083,159.993 104.897 C 159.708 104.712,159.258 104.319,158.993 104.023 C 158.705 103.702,158.463 103.565,158.391 103.681 M160.848 105.719 C 160.848 105.798,161.015 105.876,161.220 105.892 C 161.425 105.907,161.544 105.842,161.486 105.747 C 161.356 105.537,160.848 105.515,160.848 105.719 M200.000 106.110 C 199.309 106.219,199.293 106.234,199.751 106.359 C 200.062 106.444,200.429 106.393,200.764 106.218 C 201.313 105.932,201.218 105.919,200.000 106.110 M162.782 106.310 C 162.845 106.412,163.052 106.495,163.243 106.495 C 163.433 106.495,163.641 106.412,163.703 106.310 C 163.770 106.203,163.579 106.126,163.243 106.126 C 162.907 106.126,162.716 106.203,162.782 106.310 M151.397 109.212 C 151.462 109.390,151.627 109.602,151.763 109.684 C 151.900 109.767,151.968 109.904,151.915 109.991 C 151.861 110.077,151.945 110.129,152.100 110.106 C 152.445 110.055,152.401 109.847,151.929 109.304 C 151.499 108.810,151.232 108.764,151.397 109.212 M213.543 109.718 C 213.305 109.971,213.167 110.234,213.235 110.302 C 213.370 110.437,214.279 109.660,214.279 109.411 C 214.279 109.129,213.978 109.255,213.543 109.718 M152.904 110.510 C 153.191 111.045,153.286 111.070,154.120 110.824 L 154.855 110.608 154.120 110.504 C 153.716 110.447,153.231 110.338,153.042 110.262 C 152.739 110.140,152.723 110.170,152.904 110.510 M211.792 110.532 L 211.239 110.656 211.753 110.792 C 212.102 110.884,212.396 110.837,212.669 110.646 C 213.131 110.322,212.872 110.289,211.792 110.532 M172.504 110.680 C 172.784 110.723,173.198 110.722,173.425 110.678 C 173.652 110.634,173.422 110.599,172.916 110.601 C 172.409 110.602,172.224 110.638,172.504 110.680 " stroke="none" fill="#646567" fill-rule="evenodd"></path><path id="path4" d="M160.787 63.319 C 160.616 63.490,160.630 74.251,160.801 74.252 C 160.877 74.252,160.940 71.826,160.940 68.862 L 160.940 63.473 181.667 63.473 L 202.395 63.473 202.395 81.898 C 202.395 102.639,202.510 101.012,200.976 102.028 L 200.211 102.533 181.865 102.533 C 171.612 102.533,163.478 102.462,163.427 102.373 C 163.375 102.282,171.295 102.202,181.682 102.188 L 200.029 102.165 200.725 101.634 C 201.993 100.667,201.942 101.327,201.890 86.461 L 201.842 73.054 181.708 73.007 C 165.691 72.970,161.559 73.007,161.502 73.191 C 161.280 73.912,161.231 74.436,161.385 74.436 C 161.482 74.436,161.587 74.166,161.619 73.837 L 161.677 73.238 181.667 73.238 L 201.658 73.238 201.712 86.320 C 201.771 100.544,201.781 100.395,200.728 101.319 L 200.079 101.889 181.744 101.889 C 161.977 101.889,162.755 101.926,162.075 100.954 C 161.891 100.692,161.651 100.590,161.313 100.631 L 160.819 100.691 161.248 101.322 C 161.484 101.669,162.044 102.147,162.494 102.384 L 163.310 102.815 181.853 102.766 L 200.396 102.718 201.044 102.274 C 201.400 102.029,201.891 101.538,202.135 101.182 L 202.579 100.534 202.579 81.911 L 202.579 63.289 181.745 63.242 C 170.286 63.216,160.855 63.251,160.787 63.319 M211.635 70.111 C 211.694 70.266,211.920 70.484,212.136 70.597 C 212.497 70.784,212.493 70.762,212.082 70.315 C 211.568 69.757,211.484 69.718,211.635 70.111 M162.239 101.400 C 162.885 102.028,163.009 102.257,162.704 102.257 C 162.411 102.257,161.400 101.316,161.400 101.043 C 161.400 100.660,161.535 100.717,162.239 101.400 " stroke="none" fill="#a3a4a7" fill-rule="evenodd"></path><path id="path5" d="M160.931 63.613 C 160.754 64.075,160.936 74.159,161.122 74.159 C 161.222 74.159,161.348 73.911,161.400 73.607 L 161.496 73.054 181.669 73.054 L 201.842 73.054 201.890 86.461 C 201.942 101.327,201.993 100.667,200.725 101.634 L 200.029 102.165 181.774 102.188 C 171.522 102.202,163.519 102.282,163.519 102.373 C 163.519 102.463,171.543 102.533,181.865 102.533 L 200.211 102.533 200.976 102.028 C 202.510 101.012,202.395 102.639,202.395 81.898 L 202.395 63.473 181.708 63.426 C 165.139 63.389,161.003 63.426,160.931 63.613 M161.400 101.043 C 161.400 101.316,162.411 102.257,162.704 102.257 C 163.009 102.257,162.885 102.028,162.239 101.400 C 161.535 100.717,161.400 100.660,161.400 101.043 " stroke="none" fill="#ebf1f1" fill-rule="evenodd"></path></g></svg>